<?xml version="1.0" encoding="UTF-8" standalone="no"?><!DOCTYPE svg PUBLIC "-//W3C//DTD SVG 1.1//EN" "http://www.w3.org/Graphics/SVG/1.1/DTD/svg11.dtd"><svg width="100%" height="100%" viewBox="0 0 40 40" version="1.1" xmlns="http://www.w3.org/2000/svg" xmlns:xlink="http://www.w3.org/1999/xlink" xml:space="preserve" xmlns:serif="http://www.serif.com/" style="fill-rule:evenodd;clip-rule:evenodd;stroke-linejoin:round;stroke-miterlimit:2;"><g><path d="M40,20c0,-11.046 -8.954,-20 -20,-20c-11.046,0 -20,8.954 -20,20c0,5.885 2.543,11.176 6.588,14.836c1.728,-6.598 7.077,-11.407 13.412,-11.407c6.335,0 11.684,4.809 13.412,11.407c4.045,-3.66 6.588,-8.951 6.588,-14.836" style="fill:#0b92ab;fill-rule:nonzero;"/><path d="M20,23.429c-6.335,0 -11.684,4.81 -13.412,11.407c3.548,3.209 8.251,5.164 13.412,5.164c5.161,0 9.864,-1.955 13.412,-5.164c-1.728,-6.597 -7.077,-11.407 -13.412,-11.407" style="fill:#ffc045;fill-rule:nonzero;"/><path d="M27.429,14c0,4.103 -3.326,7.429 -7.428,7.429c-4.103,0 -7.429,-3.326 -7.429,-7.429c0,-4.103 3.326,-7.429 7.429,-7.429c4.102,0 7.428,3.326 7.428,7.429" style="fill:#ffc045;fill-rule:nonzero;"/></g></svg>