<?xml version="1.0" encoding="UTF-8" standalone="no"?><!DOCTYPE svg PUBLIC "-//W3C//DTD SVG 1.1//EN" "http://www.w3.org/Graphics/SVG/1.1/DTD/svg11.dtd"><svg width="100%" height="100%" viewBox="0 0 323 62" version="1.1" xmlns="http://www.w3.org/2000/svg" xmlns:xlink="http://www.w3.org/1999/xlink" xml:space="preserve" xmlns:serif="http://www.serif.com/" style="fill-rule:evenodd;clip-rule:evenodd;stroke-linejoin:round;stroke-miterlimit:2;"><g><path d="M77.018,0l13.156,0l0,23.408l19.688,-23.408l15.696,0l-24.86,28.67l23.589,31.755l-15.968,0l-18.145,-24.406l0,24.406l-13.156,0l0,-60.425Z" style="fill:#282828;fill-rule:nonzero;"/><path d="M158.538,46.952c1.965,-2.509 2.949,-5.821 2.949,-9.935c0,-4.112 -0.984,-7.394 -2.949,-9.844c-1.966,-2.449 -4.582,-3.674 -7.848,-3.674c-3.266,0 -5.883,1.225 -7.848,3.674c-1.966,2.45 -2.949,5.732 -2.949,9.844c0,4.114 0.983,7.426 2.949,9.935c1.965,2.511 4.582,3.765 7.848,3.765c3.266,0 5.882,-1.254 7.848,-3.765m-20.232,11.749c-3.6,-2.055 -6.397,-4.944 -8.393,-8.664c-1.996,-3.72 -2.994,-8.03 -2.994,-12.929c0,-4.899 0.983,-9.209 2.949,-12.929c1.965,-3.72 4.748,-6.607 8.347,-8.664c3.598,-2.056 7.757,-3.085 12.475,-3.085c4.718,0 8.876,1.014 12.475,3.039c3.598,2.028 6.381,4.886 8.347,8.574c1.965,3.69 2.949,7.955 2.949,12.793c0,4.899 -0.984,9.24 -2.949,13.019c-1.966,3.781 -4.749,6.714 -8.347,8.801c-3.599,2.087 -7.727,3.13 -12.384,3.13c-4.718,0 -8.877,-1.029 -12.475,-3.085" style="fill:#282828;fill-rule:nonzero;"/><path d="M188.249,57.159c-2.844,-3.024 -4.264,-7.167 -4.264,-12.43l0,-31.029l12.792,0l0,28.943c0,2.48 0.604,4.4 1.815,5.761c1.209,1.361 2.842,2.041 4.899,2.041c2.056,0 4.038,-0.665 5.943,-1.996c1.905,-1.33 3.493,-3.114 4.763,-5.353l0,-29.396l12.793,0l0,46.725l-12.793,0l0,-6.169c-1.755,2.359 -3.765,4.189 -6.033,5.489c-2.269,1.3 -5.006,1.95 -8.211,1.95c-4.96,0 -8.862,-1.511 -11.704,-4.536" style="fill:#282828;fill-rule:nonzero;"/><path d="M238.784,13.7l12.52,0l0,8.075c1.936,-3.205 4.174,-5.564 6.714,-7.077c2.541,-1.511 5.503,-2.268 8.892,-2.268c5.02,0 8.951,1.497 11.794,4.491c2.843,2.994 4.264,7.153 4.264,12.475l0,31.029l-12.792,0l0,-29.033c0,-2.419 -0.606,-4.31 -1.815,-5.671c-1.21,-1.36 -2.843,-2.041 -4.899,-2.041c-2.42,0 -4.718,0.907 -6.895,2.722c-2.178,1.814 -3.842,4.114 -4.99,6.895l0,27.128l-12.793,0l0,-46.725Z" style="fill:#282828;fill-rule:nonzero;"/><path d="M300.434,58.474c-2.39,-2.207 -3.584,-5.337 -3.584,-9.39l0,-24.406l-7.258,0l0,-10.978l7.258,0l0,-9.98c4.294,-0.726 8.529,-1.27 12.702,-1.633l0,11.613l11.795,0l0,10.978l-11.795,0l0,22.047c0,1.27 0.377,2.238 1.134,2.903c0.756,0.666 1.829,0.998 3.221,0.998c1.693,0 3.629,-0.393 5.807,-1.179l2.812,9.617c-3.871,1.814 -7.863,2.722 -11.976,2.722c-4.355,0 -7.727,-1.105 -10.116,-3.312" style="fill:#282828;fill-rule:nonzero;"/><path d="M43.442,0c-0.124,0.285 -0.261,0.571 -0.367,0.858c-3.365,9.115 -6.726,18.23 -10.089,27.346c-0.094,0.258 -0.19,0.514 -0.301,0.819l18.363,0c0.087,-0.192 0.194,-0.397 0.27,-0.602c3.418,-9.259 6.833,-18.518 10.247,-27.777c0.079,-0.215 0.142,-0.43 0.213,-0.644l-18.336,0Zm-21.183,0c-7.42,20.116 -14.84,40.232 -22.259,60.349l18.495,0c0.111,-0.287 0.229,-0.575 0.335,-0.861c7.191,-19.495 14.382,-38.99 21.571,-58.485c0.125,-0.334 0.235,-0.669 0.352,-1.003l-18.494,0Zm9.609,31.362c-0.095,0.214 -0.2,0.422 -0.277,0.628c-3.418,9.263 -6.834,18.526 -10.249,27.789c-0.069,0.19 -0.108,0.38 -0.16,0.57l18.336,0c0.406,-1.078 0.819,-2.154 1.216,-3.231c3.057,-8.28 6.11,-16.562 9.165,-24.843c0.105,-0.285 0.211,-0.571 0.337,-0.913l-18.368,0Z" style="fill:url(#_Radial1);fill-rule:nonzero;"/></g><defs><radialGradient id="_Radial1" cx="0" cy="0" r="1" gradientUnits="userSpaceOnUse" gradientTransform="matrix(37.1019,65.9868,-101.307,63.7278,35.3296,25.5166)"><stop offset="0" style="stop-color:#caffff;stop-opacity:1"/><stop offset="0.61" style="stop-color:#0a91ab;stop-opacity:1"/><stop offset="1" style="stop-color:#0a91ab;stop-opacity:1"/></radialGradient></defs></svg>