<?xml version="1.0" standalone="no"?>
<!DOCTYPE svg PUBLIC "-//W3C//DTD SVG 20010904//EN"
 "http://www.w3.org/TR/2001/REC-SVG-20010904/DTD/svg10.dtd">
<svg version="1.0" xmlns="http://www.w3.org/2000/svg"
 width="121.000000pt" height="74.000000pt" viewBox="0 0 121.000000 74.000000"
 preserveAspectRatio="xMidYMid meet">

<g transform="translate(0.000000,74.000000) scale(0.100000,-0.100000)"
fill="#000000" stroke="none">
<path d="M393 733 c-13 -2 -23 -11 -23 -19 0 -17 0 -17 44 1 54 23 44 31 -21
18z"/>
<path d="M282 723 c-19 -4 -23 -9 -18 -26 3 -12 6 -28 6 -36 0 -11 3 -11 17 0
9 8 17 12 17 10 3 -10 45 12 50 26 11 28 -15 37 -72 26z m43 -33 c-10 -11 -20
-18 -23 -15 -3 3 3 14 13 25 10 11 20 18 23 15 3 -3 -3 -14 -13 -25z"/>
<path d="M196 666 c-27 -32 -47 -58 -45 -60 25 -21 45 -22 90 -5 27 11 72 19
99 19 l51 0 -16 30 -16 31 -37 -22 c-20 -13 -40 -27 -43 -32 -10 -15 -28 1
-23 21 2 9 1 30 -4 46 l-8 28 -48 -56z"/>
<path d="M415 703 c-39 -21 -38 -18 -30 -42 9 -30 19 -26 49 19 29 44 26 47
-19 23z"/>
<path d="M168 693 c-29 -11 -38 -21 -38 -38 0 -13 3 -26 8 -29 7 -4 77 72 71
79 -2 1 -21 -4 -41 -12z"/>
<path d="M65 616 c-23 -31 -26 -41 -19 -78 l7 -43 23 75 c13 41 21 76 20 78
-2 2 -16 -13 -31 -32z"/>
<path d="M87 567 c-35 -107 -35 -117 2 -117 25 0 30 5 41 44 9 34 10 53 1 77
-6 17 -8 35 -5 40 3 5 1 16 -3 24 -6 11 -17 -9 -36 -68z"/>
<path d="M140 578 c0 -7 4 -19 9 -26 6 -10 11 -10 21 3 12 14 11 18 -1 26 -20
12 -29 11 -29 -3z"/>
<path d="M12 514 c-15 -52 -16 -108 -1 -99 19 12 28 54 21 97 l-7 43 -13 -41z"/>
<path d="M81 403 c53 -89 65 -91 46 -10 -9 43 -13 47 -40 47 l-29 0 23 -37z"/>
<path d="M22 409 c-10 -16 -11 -28 -2 -54 9 -28 17 -34 51 -40 22 -4 42 -5 44
-3 6 6 -59 111 -70 115 -6 2 -16 -6 -23 -18z"/>
<path d="M150 280 c9 -49 14 -55 30 -36 10 12 8 21 -10 46 -12 16 -23 30 -24
30 -2 0 0 -18 4 -40z"/>
<path d="M50 289 c18 -34 70 -99 80 -99 13 0 17 42 8 78 -6 24 -14 32 -31 32
-12 0 -33 3 -46 7 -22 6 -23 4 -11 -18z"/>
<path d="M166 215 c-41 -53 -22 -64 67 -39 25 8 21 39 -8 58 -13 9 -26 16 -28
16 -3 0 -17 -16 -31 -35z"/>
<path d="M273 174 c16 -31 54 -70 61 -63 2 2 2 16 -1 30 -4 23 -16 34 -66 57
-5 2 -2 -9 6 -24z"/>
<path d="M220 163 c-14 -3 -29 -8 -33 -13 -9 -8 101 -80 122 -80 7 0 22 -7 34
-14 24 -16 137 -41 227 -51 l55 -6 -28 25 c-36 34 -72 42 -105 25 -43 -22 -49
-22 -23 -1 l25 20 -57 7 c-31 4 -68 4 -82 1 -18 -5 -25 -2 -25 8 0 11 -75 89
-83 85 -1 -1 -13 -4 -27 -6z"/>
<path d="M350 127 c0 -27 9 -32 100 -43 52 -6 54 -5 39 11 -18 18 -48 22 -89
11 l-25 -7 24 14 c21 13 22 14 5 19 -11 3 -27 9 -36 13 -14 6 -18 2 -18 -18z"/>
<path d="M1091 119 c-14 -5 -31 -7 -38 -4 -8 2 -11 0 -8 -6 4 -6 -3 -8 -22 -4
-19 5 -24 4 -14 -3 11 -8 11 -10 0 -14 -8 -3 -12 -8 -9 -11 5 -5 104 33 116
46 9 9 5 8 -25 -4z"/>
<path d="M539 76 c44 -33 68 -41 86 -26 25 20 17 27 -35 34 -28 4 -58 9 -68
13 -9 3 -2 -6 17 -21z"/>
<path d="M800 70 c-25 -4 -40 -8 -35 -9 6 0 39 -6 74 -11 63 -11 123 -2 136
21 7 10 -106 10 -175 -1z"/>
<path d="M640 51 c-24 -46 -15 -53 58 -46 37 4 70 9 75 12 16 9 5 25 -28 39
-49 20 -92 18 -105 -5z"/>
<path d="M790 30 c0 -13 30 -13 50 0 11 7 7 10 -17 10 -18 0 -33 -4 -33 -10z"/>
</g>
</svg>
