<?xml version="1.0" encoding="UTF-8" standalone="no"?><!DOCTYPE svg PUBLIC "-//W3C//DTD SVG 1.1//EN" "http://www.w3.org/Graphics/SVG/1.1/DTD/svg11.dtd"><svg width="100%" height="100%" viewBox="0 0 97 97" version="1.1" xmlns="http://www.w3.org/2000/svg" xmlns:xlink="http://www.w3.org/1999/xlink" xml:space="preserve" xmlns:serif="http://www.serif.com/" style="fill-rule:evenodd;clip-rule:evenodd;stroke-linejoin:round;stroke-miterlimit:2;"><g><rect x="0" y="0" width="96.863" height="96.863" style="fill:none;"/><path d="M60.523,19.364c-0.118,0.276 -0.25,0.551 -0.352,0.827c-3.241,8.781 -6.48,17.562 -9.719,26.342c-0.091,0.248 -0.183,0.496 -0.291,0.79l17.691,0c0.083,-0.185 0.186,-0.383 0.26,-0.581c3.292,-8.919 6.582,-17.838 9.87,-26.758c0.077,-0.207 0.138,-0.413 0.205,-0.62l-17.664,0Zm-20.405,0c-7.147,19.378 -14.295,38.756 -21.443,58.135l17.817,0c0.107,-0.276 0.221,-0.553 0.323,-0.829c6.928,-18.78 13.855,-37.56 20.781,-56.34c0.119,-0.322 0.225,-0.644 0.339,-0.966l-17.817,0Zm9.258,30.212c-0.092,0.207 -0.194,0.406 -0.267,0.605c-3.294,8.924 -6.585,17.846 -9.873,26.769c-0.068,0.184 -0.105,0.366 -0.155,0.549l17.664,0c0.391,-1.037 0.788,-2.075 1.171,-3.111c2.945,-7.978 5.886,-15.956 8.829,-23.933c0.101,-0.276 0.202,-0.55 0.324,-0.879l-17.693,0Z" style="fill:url(#_Radial1);fill-rule:nonzero;"/></g><defs><radialGradient id="_Radial1" cx="0" cy="0" r="1" gradientUnits="userSpaceOnUse" gradientTransform="matrix(35.7409,63.5662,-97.5904,61.3901,52.7099,43.9442)"><stop offset="0" style="stop-color:#caffff;stop-opacity:1"/><stop offset="0.61" style="stop-color:#0a91ab;stop-opacity:1"/><stop offset="1" style="stop-color:#0a91ab;stop-opacity:1"/></radialGradient></defs></svg>